<?xml version="1.0" standalone="no"?><!DOCTYPE svg PUBLIC "-//W3C//DTD SVG 1.1//EN" "http://www.w3.org/Graphics/SVG/1.1/DTD/svg11.dtd"><svg t="1656085504355" class="icon" viewBox="0 0 1024 1024" version="1.1" xmlns="http://www.w3.org/2000/svg" p-id="3647" xmlns:xlink="http://www.w3.org/1999/xlink" width="16" height="16"><defs><style type="text/css"></style></defs><path d="M941.710222 703.943111h-61.724444v-160H550.826667v-105.159111h272.014222c10.069333 0 18.289778-8.248889 18.289778-18.289778V118.784a18.346667 18.346667 0 0 0-18.289778-18.289778H201.130667a18.346667 18.346667 0 0 0-18.289778 18.289778v301.710222c0 10.069333 8.248889 18.289778 18.289778 18.289778h271.985777v105.159111H143.985778v160h-61.724445a9.159111 9.159111 0 0 0-9.130666 9.130667v201.130666c0 5.034667 4.096 9.159111 9.130666 9.159112h201.159111a9.159111 9.159111 0 0 0 9.130667-9.159112V713.102222a9.159111 9.159111 0 0 0-9.130667-9.130666h-61.724444v-82.289778h251.448889v82.289778h-61.724445a9.159111 9.159111 0 0 0-9.159111 9.130666v201.130667c0 5.034667 4.124444 9.159111 9.159111 9.159111h201.130667a9.159111 9.159111 0 0 0 9.159111-9.159111V713.102222a9.159111 9.159111 0 0 0-9.159111-9.130666h-61.724444v-82.289778h251.448889v82.289778h-61.724445a9.159111 9.159111 0 0 0-9.130667 9.130666v201.130667c0 5.034667 4.096 9.159111 9.130667 9.159111h201.159111a9.159111 9.159111 0 0 0 9.130667-9.159111V713.102222a9.159111 9.159111 0 0 0-9.130667-9.130666zM219.420444 847.132444c0 1.706667-1.393778 3.072-3.100444 3.072H149.248a3.072 3.072 0 0 1-3.100444-3.072v-67.100444c0-1.706667 1.365333-3.072 3.100444-3.072h67.072c1.706667 0 3.100444 1.365333 3.100444 3.072v67.100444z m329.130667 0c0 1.706667-1.365333 3.072-3.072 3.072h-67.100444a3.072 3.072 0 0 1-3.072-3.072v-67.100444c0-1.706667 1.365333-3.072 3.072-3.072h67.100444c1.706667 0 3.072 1.365333 3.072 3.072v67.100444zM256 365.653333v-192h512v192H256z m621.738667 481.479111c0 1.706667-1.393778 3.072-3.100445 3.072H807.537778a3.072 3.072 0 0 1-3.100445-3.072v-67.100444c0-1.706667 1.365333-3.072 3.100445-3.072h67.072c1.706667 0 3.100444 1.365333 3.100444 3.072v67.100444zM338.261333 269.653333a45.710222 45.710222 0 1 0 91.420445 0 45.710222 45.710222 0 0 0-91.420445 0z" p-id="3648" fill="#d4237a"></path></svg>